<svg xmlns="http://www.w3.org/2000/svg" width="240" height="160" fill="none">
  <path fill="#fff" fill-rule="evenodd" d="M129.18 106.13a2.8 2.8 0 0 0-.3-.02h-.67c-2.22 0-3.64.43-4.2 1.35-.55.62-.8 1.73-.8 3.34v.98h-2.16v2.78h2.22v12.29h3.95v-12.29h2.6v-2.78h-2.6v-1.3c0-.3.13-.55.31-.8.25-.24.62-.37 1.11-.37.3 0 .54.03.74.04l.37.03v-3.21c-.21 0-.41-.02-.57-.04Zm-56.03 7.45a4.98 4.98 0 0 0-1.73-1.67 5.42 5.42 0 0 0-2.47-.62 5.8 5.8 0 0 0-4.81 2.22c-1.18 1.48-1.8 3.52-1.8 6.11 0 2.29.56 4.14 1.8 5.56a5.76 5.76 0 0 0 4.5 2.16 5.2 5.2 0 0 0 2.72-.62 5.89 5.89 0 0 0 1.91-1.97v2.1h3.9v-20.5h-4.02v7.23Zm.12 5.92c0 1.36-.25 2.4-.86 3.27a2.86 2.86 0 0 1-2.53 1.17c-1.11 0-1.98-.36-2.53-1.23a6.15 6.15 0 0 1-.8-3.4c0-1.3.24-2.4.8-3.27.49-.86 1.35-1.3 2.53-1.3.74 0 1.42.25 1.97.75.93.8 1.42 2.16 1.42 4.01Zm-26.23-6.23a3.97 3.97 0 0 0-1.85-1.48 6.42 6.42 0 0 0-2.47-.56 5.3 5.3 0 0 0-2.41.55 5.1 5.1 0 0 0-1.98 1.86v-7.23h-3.95v20.5h3.95v-8.21c0-1.3.25-2.35.8-3.03.5-.68 1.3-1.05 2.35-1.05.99 0 1.67.37 2.04 1.05.3.5.43 1.18.43 1.98v9.26h3.95v-8.95c0-1.36-.06-2.35-.12-2.97a3.52 3.52 0 0 0-.74-1.72ZM24.57 123.5c-.31-.24-.5-.8-.56-1.48H20c0 1.55.56 2.84 1.73 3.83 1.17 1.05 2.9 1.54 5.3 1.54 2.35 0 4.08-.5 5.2-1.42a4.75 4.75 0 0 0 1.66-3.7c0-1.11-.37-2.1-1.17-2.84a7.75 7.75 0 0 0-3.58-1.67 34.6 34.6 0 0 1-4.14-1.1c-.43-.2-.62-.56-.62-1 0-.37.19-.68.56-.92.37-.31.99-.44 1.85-.44 1.05 0 1.79.25 2.22.8.25.32.37.75.43 1.24h3.96c-.13-1.91-.87-3.2-2.04-3.95a8.56 8.56 0 0 0-4.63-1.1c-1.98 0-3.52.48-4.63 1.47a4.8 4.8 0 0 0-1.67 3.64c0 1.18.37 2.1 1.05 2.72.68.62 1.92 1.17 3.64 1.6 2.35.56 3.77.93 4.14 1.18.37.18.55.55.55.99 0 .49-.18.8-.67 1.04-.44.25-1.05.38-1.86.38-1.3 0-2.22-.25-2.71-.8Zm30.92-5.86c.74-.06 1.3-.19 1.6-.37.56-.25.87-.62.87-1.11 0-.62-.24-1.05-.68-1.3a4.05 4.05 0 0 0-1.91-.37c-.93 0-1.6.25-2.04.68-.3.37-.49.8-.55 1.42h-3.83c.06-1.36.43-2.4 1.11-3.27 1.05-1.36 2.84-1.98 5.43-1.98 1.67 0 3.15.31 4.45.99 1.3.68 1.97 1.91 1.97 3.77v8.64c0 .5.13.86.25 1.05.12.18.3.3.56.43v.55H58.4c-.1-.25-.16-.5-.22-.71l-.03-.15c-.04-.14-.05-.29-.07-.46l-.06-.47a7.77 7.77 0 0 1-1.9 1.55 5.8 5.8 0 0 1-2.91.74 5.1 5.1 0 0 1-3.46-1.17 4.16 4.16 0 0 1-1.35-3.34c0-1.85.74-3.2 2.16-4.07.8-.43 1.97-.8 3.51-.99l1.42-.06Zm2.41 1.85c-.25.19-.5.3-.74.37-.25.12-.62.19-1.05.25l-.92.18c-.87.13-1.49.31-1.86.56-.61.37-.92.92-.92 1.67 0 .67.18 1.17.55 1.48.37.3.87.43 1.42.43.87 0 1.67-.25 2.41-.74.74-.5 1.11-1.42 1.11-2.72v-1.48Zm30.56-7.53a7.03 7.03 0 0 1 2.65 2.22 7.83 7.83 0 0 1 1.24 3.15c.12.68.12 1.73.12 3.02H81.42c.06 1.55.62 2.6 1.6 3.22a4.3 4.3 0 0 0 2.17.55c.92 0 1.66-.25 2.22-.68.3-.25.55-.62.8-1.05h3.84l-.01-.37h4c.07.68.26 1.24.56 1.48.5.56 1.42.8 2.72.8.8 0 1.42-.12 1.85-.37.5-.24.68-.55.68-1.04 0-.44-.18-.8-.55-1-.37-.24-1.8-.6-4.14-1.17-1.73-.43-2.96-.98-3.64-1.6a3.53 3.53 0 0 1-1.05-2.72c0-1.42.55-2.59 1.67-3.64 1.1-.98 2.65-1.48 4.63-1.48 1.9 0 3.45.37 4.63 1.11 1.17.74 1.9 2.04 2.03 3.95h-3.95c-.06-.5-.18-.92-.43-1.23-.43-.56-1.17-.8-2.22-.8-.87 0-1.48.12-1.85.43-.38.24-.56.55-.56.92 0 .44.19.8.62 1 .37.18 1.79.55 4.13 1.1 1.6.37 2.78.93 3.58 1.67.8.74 1.18 1.73 1.18 2.84 0 1.48-.56 2.71-1.67 3.7-1.11.93-2.84 1.42-5.19 1.42-2.4 0-4.13-.5-5.3-1.54a4.97 4.97 0 0 1-1.64-2.8 6.3 6.3 0 0 1-1.33 2.12c-1.36 1.48-3.27 2.22-5.74 2.22a8.35 8.35 0 0 1-5.37-1.85c-1.54-1.23-2.34-3.27-2.34-6.11 0-2.66.67-4.63 2.1-6.05a6.66 6.66 0 0 1 5.18-2.1c1.3 0 2.78.25 3.83.68Zm-6 3.46a3.95 3.95 0 0 0-1.04 2.34h6.85a3.37 3.37 0 0 0-1.05-2.4 3.39 3.39 0 0 0-2.34-.8c-1.05 0-1.8.24-2.41.86Zm37.36 9.56c-1.3 1.6-3.21 2.35-5.87 2.35-2.6 0-4.57-.8-5.86-2.35a8.83 8.83 0 0 1-1.92-5.74c0-2.16.62-4.07 1.92-5.67 1.3-1.61 3.2-2.41 5.86-2.41 2.6 0 4.57.8 5.86 2.4a8.78 8.78 0 0 1 1.92 5.68 8.6 8.6 0 0 1-1.92 5.74Zm-3.15-2.16c.61-.8.92-1.97.92-3.52 0-1.54-.3-2.71-.92-3.51a3.23 3.23 0 0 0-2.66-1.24 3.3 3.3 0 0 0-2.71 1.24c-.62.8-.93 1.97-.93 3.52 0 1.54.3 2.71.93 3.51.61.8 1.54 1.24 2.71 1.24 1.11 0 2.04-.43 2.66-1.24Zm25.98-10.3c1 .8 1.49 2.16 1.49 4.07v10.25h-4.08v-9.26a5 5 0 0 0-.3-1.86c-.38-.8-1.12-1.17-2.23-1.17-1.36 0-2.28.56-2.78 1.73a6.22 6.22 0 0 0-.37 2.35v8.2h-3.95v-15.18h3.83v2.22c.5-.8.99-1.35 1.42-1.66.8-.62 1.85-.93 3.08-.93 1.61 0 2.9.43 3.9 1.23Zm9.76 14.81c2.65 0 4.56-.74 5.86-2.35a8.6 8.6 0 0 0 1.91-5.74c0-2.16-.61-4.07-1.9-5.67-1.3-1.61-3.28-2.41-5.87-2.41-2.66 0-4.57.8-5.87 2.4a8.78 8.78 0 0 0-1.91 5.68c0 2.23.62 4.14 1.91 5.74 1.3 1.55 3.28 2.35 5.87 2.35Zm3.58-8.03c0 1.55-.31 2.72-.93 3.52a3.15 3.15 0 0 1-2.65 1.24c-1.17 0-2.1-.43-2.72-1.24-.62-.8-.93-1.97-.93-3.52 0-1.54.31-2.71.93-3.51a3.35 3.35 0 0 1 2.72-1.24c1.1 0 2.03.43 2.65 1.24.62.8.93 1.97.93 3.52Zm13.52-8.02h.3v4.07c-.13 0-.26-.01-.38-.03l-.3-.03h-.49c-1.6 0-2.65.5-3.2 1.55-.32.55-.44 1.48-.44 2.71v7.29h-4.01v-15.19h3.76v2.66a9.95 9.95 0 0 1 1.6-2.1 4.42 4.42 0 0 1 2.9-.93h.26Zm13.82.37h-4l-2.23 10.93-2.35-10.93h-4.26l4.26 15.19h4.14l2.4-11.05 2.35 11.05h4.08l4.44-15.19h-4.13l-2.41 10.99-2.29-10.99Zm15.62 5.99c.74-.06 1.3-.19 1.6-.37.56-.25.87-.62.87-1.11 0-.62-.25-1.05-.68-1.3a3.88 3.88 0 0 0-1.91-.37c-.93 0-1.6.25-2.04.68-.3.37-.5.8-.55 1.42h-3.83c.06-1.36.43-2.4 1.1-3.27 1.06-1.36 2.85-1.98 5.44-1.98 1.67 0 3.15.31 4.45.99 1.3.68 1.97 1.91 1.97 3.77v8.64c0 .5.12.86.25 1.05.12.18.3.3.61.43v.55h-4.32a6.32 6.32 0 0 1-.31-1.33l-.06-.46a7.77 7.77 0 0 1-1.91 1.55 5.8 5.8 0 0 1-2.9.74 5.1 5.1 0 0 1-3.46-1.17 4.16 4.16 0 0 1-1.36-3.34c0-1.85.74-3.2 2.16-4.07.8-.43 1.98-.8 3.52-.99l1.36-.06Zm2.4 1.85c-.24.19-.49.3-.73.37-.25.12-.62.19-1.05.25l-.93.18c-.86.13-1.48.31-1.85.56-.62.37-.93.92-.93 1.67 0 .67.19 1.17.56 1.48.37.3.86.43 1.42.43.86 0 1.67-.25 2.4-.74.75-.5 1.12-1.42 1.12-2.72v-1.48Zm6.24 10.3h-.55v3.16c.43.06.8.06.99.06h.86c1.79 0 2.96-.37 3.52-1.05.62-.68 1.42-2.47 2.4-5.37l5.19-14.94h-4.2l-3.15 11.24-3.33-11.24h-4.44l5.55 15.87c.06.11-.05.39-.21.83l-.03.1c-.19.48-.38.8-.62.98-.19.18-.5.25-.87.3-.37.07-.74.07-1.1.07ZM94.2 51.78 80.37 40.36c-.86-.8-.8-2.46.12-3.39 1.55-1.54 3.52 0 3.52 0l7.72 6.54L100 38.4l-9.63-8.15a11.78 11.78 0 0 0-16.42.19 11.77 11.77 0 0 0 0 16.6c.12.13 14.44 11.98 14.44 11.98 3.34 2.65 3.9 4.94 3.9 10.06v6.42a6.35 6.35 0 1 1-12.72 0V56.35l-9.26-7.4v26.54c0 8.58 6.97 15.62 15.62 15.62 6.8 0 12.62-4.38 14.75-10.5a15.65 15.65 0 0 0 14.75 10.5c6.3 0 11.73-3.76 14.2-9.17v9.23l9.2-3.09V53.64a6.35 6.35 0 1 1 12.71 0l.06 21.91c0 8.58 6.98 15.62 15.62 15.62l3.03-.06-3.03-9.14v-.06a6.35 6.35 0 0 1-6.36-6.36V53.64c0-8.58-6.97-15.62-15.61-15.62a15.65 15.65 0 0 0-14.9 10.9 15.65 15.65 0 0 0-14.92-11.02 15.64 15.64 0 0 0-15.62 15.6v5.27a18.77 18.77 0 0 0-5.61-7Zm21.23-4.62a6.35 6.35 0 0 0-6.36 6.35V75.5a6.35 6.35 0 1 0 12.72 0v-22a6.39 6.39 0 0 0-6.36-6.35Z" clip-rule="evenodd"/>
</svg>