<svg xmlns="http://www.w3.org/2000/svg" width="240" height="160" fill="none">
  <path fill="#fff" d="M158.43 119.33h-5.88l-2.41-4.02h21.08l-2.44 4.02h-5.87v21.17h-4.48v-21.17Zm-6.38 20.17-6-9.57c3.25-1.15 4.78-4.14 4.78-7.03 0-4.95-3.66-7.6-8.21-7.6h-9.57v24.2h4.51v-20.4h4.45c2.5 0 4.4.92 4.4 3.77 0 2.51-1.72 3.77-4.34 3.77h-3.04l8.1 12.86h4.92Zm-41.86-7.94v-7.73c0-5.74 4.88-8.93 9.67-8.93 5.26 0 9.84 3.43 9.84 8.83v7.26c0 5.73-4.89 8.92-9.68 8.92-5.25 0-9.83-2.95-9.83-8.35Zm15.03-.34v-7.74c0-2.91-2.51-4.58-5.37-4.58-2.3 0-5.19 1.22-5.19 4.68v7.74c0 2.92 2.51 4.58 5.36 4.58 2.31 0 5.2-1.22 5.2-4.68ZM100 115.3h-9.53v24.2h4.51v-20.4h4.4c2.51 0 4.41.92 4.41 3.77 0 2.51-1.73 3.77-4.34 3.77h-3.06l2.4 3.8h1.44c5.5 0 7.97-3.84 7.97-7.53 0-4.97-3.52-7.61-8.2-7.61Zm-19.7 24.34c5-.05 7.42-2.96 7.42-7.28 0-4.18-2.33-5.72-5.21-6.58-4.8-1.42-7.51-1.48-7.51-4.04 0-2.18 1.96-2.57 3.59-2.6 3.79-.1 7.2.13 7.2.13v-3.83s-3.46-.26-7.53-.18c-5.3.1-7.51 2.45-7.51 6.87 0 4.15 2.65 5.43 5.16 6.2 3.62 1.12 7.36 1.06 7.36 4.32 0 2.06-1.84 2.82-4.13 2.9-3.92.14-7.86-.18-7.86-.18v4.08s3.64.24 9.03.19Zm92.74-53.69h4.88l5.45 17.76h.06l5.45-17.76h4.48l-7.97 24.19h-4.45l-7.9-24.2Zm-20.01 16.25v-7.73c0-5.73 4.89-8.93 9.68-8.93 5.25 0 9.83 3.43 9.83 8.83v7.26c0 5.73-4.88 8.92-9.67 8.92-5.26 0-9.84-2.96-9.84-8.35Zm15.03-.34v-7.74c0-2.91-2.5-4.57-5.36-4.57-2.3 0-5.2 1.22-5.2 4.68v7.74c0 2.91 2.52 4.57 5.37 4.57 2.3 0 5.2-1.22 5.2-4.68ZM130.9 85.95h4.5v9.87h9.67v-9.87h4.52v24.19h-4.52V99.79h-9.67v10.35h-4.5v-24.2Zm-10.16 24.31c5-.05 7.4-2.97 7.4-7.28 0-4.18-2.32-5.72-5.2-6.58-4.8-1.42-7.51-1.48-7.51-4.04 0-2.18 1.96-2.57 3.59-2.6 3.78-.1 7.2.13 7.2.13v-3.83s-3.46-.26-7.53-.18c-5.3.1-7.52 2.45-7.52 6.87 0 4.15 2.66 5.42 5.17 6.2 3.62 1.11 7.35 1.06 7.35 4.32 0 2.05-1.83 2.82-4.13 2.9a78.2 78.2 0 0 1-7.85-.18v4.08s3.63.24 9.03.19Zm-11.27-.12-6-9.57c3.25-1.15 4.78-4.14 4.78-7.02 0-4.96-3.67-7.6-8.21-7.6h-9.57v24.19h4.51v-20.4h4.44c2.51 0 4.42.92 4.42 3.78 0 2.5-1.73 3.76-4.35 3.76h-3.04l8.1 12.87h4.92v-.01Zm-41.96-7.94v-7.73c0-5.73 4.89-8.93 9.67-8.93 5.26 0 9.84 3.43 9.84 8.83v7.26c0 5.73-4.88 8.92-9.67 8.92-5.25 0-9.84-2.96-9.84-8.35Zm15.04-.34v-7.54c0-2.92-2.51-4.58-5.37-4.58-2.3 0-5.19 1.22-5.19 4.68v7.55c0 2.91 2.51 4.57 5.37 4.57 2.3 0 5.19-1.22 5.19-4.68Zm-26.6-12.04h-5.89l-2.42-3.87h21.08l-2.43 3.87h-5.87v20.32h-4.48V89.82Zm98.89-32.99c2.89 2.72 5.37 3.14 6.81 3.06.32-.02.5.4.18.66-1.48 1.2-4.78 2.61-12-1.25a5.94 5.94 0 0 0-3.38-.74 11.67 11.67 0 0 1-5.13-.37l-.07-.03c.29.18 2.92 1.82 1.55 2.42-.36.16-.83.32-1.34.5-1.65.55-3.8 1.27-4.53 2.73-.94 1.87-3.91 1.04-5.2-.33-1.08-1.13-1.68-2.3-.89-3.89.53-1.05.82-.62 1.16-.13.49.7 1.05 1.5 2.5-1.75 0 0 1.28-2.58.52-4.21-1.19-2.57-1.3-3.35-1.42-4.79a8.14 8.14 0 0 1 .9-4.07c.7-1.6 1.26-2.9-.52-4.48l-.36-.3a12.9 12.9 0 0 1-2-2.02 6.93 6.93 0 0 1-1.49-3.54c-.03-.36-.43-.43-.57-.12-1.48 3.22-.9 6.82 1.5 9.68 2.32 2.75.59 11.07-.86 12.63-.85.92-2.27-1.24-2.93-2.4-.22-.4-.53-.43-.42-.03.3 1.1.5 1.75.65 2.27.2.62.32 1.06.5 1.83.47 2.02-.6 5.75-3.59 6.7-1.48.46-10.64 5.43-10.64 5.43h-4.53s-3.16-1.91-.49-6a6.23 6.23 0 0 1 3.73-2.83l1.36.78c2.58.74 5.73-2.94 5.73-2.94l-.05-1.13c-1-.71-2.15-1.3-3.36-1.94a25.47 25.47 0 0 1-5.36-3.37c-.45-.38-.65-.09-.27.29.58.59 1.21 1.09 1.81 1.57.92.73 1.76 1.4 2.29 2.25.6.95-.48 2.2-2.61 2.31-2.74.14-4.19-.14-5.68-.43-1.65-.31-3.36-.65-6.95-.44-6.46.38-13.8 6.84-13.82 12.92 0 3.75 2.72 4.9 2.72 4.9l1.89 4.55h-8.79l-2.5-2.54c.95-.57 1.33-2.42 1.33-4.41v-6.7c0-1.85.73-2.43 1.25-2.85l.24-.2c2.63-2.41 5.51-5.08 5.8-10.93.35-6.99 1.95-9 1.95-9s-.63.33-1.14 1c-.57.74-.75 1-.75 1s-7.96-3.58-6.95-9.63c.75-4.47 8.31-5.24 15.92 1.39.31.27-1.1 1-1.7 1.14-11.22-8.38-13.95.55-4.93 3.03 2.05.57 3.8-.4 5.59-1.38 1.38-.76 2.8-1.53 4.37-1.61 4.62-.12 6.84-1.92 13.57-8.35 9.5-9.07 21.11-12.77 30.82-9.45 11.76 4.02 12.38 17.14 2.48 16.2a13.37 13.37 0 0 1 1.44.56 14.27 14.27 0 0 1 4.75 3.17c.63.6 1.02.98 1.65.97.94-.03 1.68-1.17 1.93-3.16a16.14 16.14 0 0 0-2.56-11.3c-.55-.85.06-1.16 1.67.9 5.08 6.48 7.83 17.36-2.65 26.54-.57.59-2.33 1.57-3.03 1.97l-.3.16s4.17-1.44 5.2-.47Z"/>
  <path fill="#fff" d="M107.24 75.47c-2.02-1.45-4.6-4.6-3.34-13.2.62-4.19-7.3.04-8.83 4.3 4.79 6.74 6.57 9.62 5.39 11.67l2.53 2.54h7.5l-1.8-4.47s-.8-.38-1.45-.84Zm49.62-4.31c-.8-.99-1.95-2.4-5.12-6.47-1.59-2.02-3.44-3.68-6.21-2.3-3.1 1.56-3.88 2.38-3.88 2.38s.07.93 2.22 2.84a36 36 0 0 0 4.18 3.02c1.59 1.03 3 1.95 3.5 2.69 1.83 2.68-.19 4.92-.19 4.92l1.94 2.54h7.53s-1.26-4.47-1.21-4.54c.57-.9-.6-2.37-1.15-3.04l-.16-.21c-.6-.79-.97-1.23-1.45-1.83Z"/>
</svg>